<?xml version="1.0" encoding="utf-8"?>
<svg xmlns="http://www.w3.org/2000/svg" viewBox="0 0 200 180" width="200" height="180" role="img" aria-label="Ankle dorsiflexion: the angle between the shank vector (knee to ankle) and the foot vector (big toe to heel), plus ninety degrees." xmlns:bx="https://boxy-svg.com"><style>
    svg { --ink:#14130f; --muted:#6f6d66; --axial:#454339; --left:#d24e2b; --surface:#fcfbf8; }
    @media (prefers-color-scheme: dark) {
      svg { --ink:#f2efe8; --muted:#928e83; --axial:#a9a496; --left:#e8623d; --surface:#1c1b16; }
    }
    .t { font-family: ui-monospace, Consolas, monospace; font-size: 11px; }
  </style><defs><marker id="aa" viewBox="0 0 10 10" refX="9" refY="5" markerWidth="5" markerHeight="5" orient="auto-start-reverse"><path d="M 0 0 L 10 5 L 0 10 z" fill="var(--axial)"/></marker><bx:export><bx:file format="svg"/></bx:export></defs><line x1="96" y1="26" x2="88" y2="100" stroke="var(--axial)" stroke-width="2.5" marker-end="url(#aa)" style="fill: rgb(24, 23, 23);"/><line x1="152" y1="132" x2="62" y2="124" stroke="var(--axial)" stroke-width="2.5" marker-end="url(#aa)"/><line x1="88" y1="104" x2="30" y2="99" stroke="var(--muted)" stroke-width="1.2" stroke-dasharray="4 3"/><line x1="88" y1="104" x2="86.44" y2="124.262" stroke="var(--muted)" stroke-width="1.2" stroke-dasharray="4 3" style=""/><path d="M 85 138 Q 54 132 54 101" fill="none" stroke="var(--left)" stroke-width="2"/><text class="t" x="56" y="150" fill="var(--left)" style="white-space: pre;">θ</text><circle cx="96" cy="26" r="5" fill="var(--surface)" stroke="var(--axial)" stroke-width="2.5"/><circle cx="88" cy="104" r="6" fill="var(--left)"/><circle cx="62" cy="124" r="5" fill="var(--surface)" stroke="var(--axial)" stroke-width="2.5"/><circle cx="152" cy="132" r="5" fill="var(--surface)" stroke="var(--axial)" stroke-width="2.5"/><text class="t" style="white-space: pre;" x="106.222" y="24.222">RKnee</text><text class="t" style="white-space: pre;" x="98.444" y="104.883">RAnkle</text><text class="t" style="white-space: pre;" x="18.458" y="129.767">RHeel</text><text class="t" style="white-space: pre; font-size: 11px;" x="131.134" y="149.554">RBigToe</text><text class="t" style="font-size: 10.1189px; white-space: pre;" transform="matrix(0.679853, 0, 0, 0.7906, 8.332506, 30.985923)" x="8" y="174">angle between two vectors — not a vertex</text></svg>