<?xml version="1.0" encoding="utf-8"?>
<svg xmlns="http://www.w3.org/2000/svg" viewBox="0 0 200 186" width="200" height="186" role="img" aria-label="Shoulder flexion: the angle between the arm vector (elbow to shoulder) and the trunk vector (pelvis centre to neck)." xmlns:bx="https://boxy-svg.com"><style>
    svg { --ink:#14130f; --muted:#6f6d66; --axial:#454339; --left:#d24e2b; --alert:#b23a22; --surface:#fcfbf8; }
    @media (prefers-color-scheme: dark) {
      svg { --ink:#f2efe8; --muted:#928e83; --axial:#a9a496; --left:#e8623d; --alert:#e8735a; --surface:#1c1b16; }
    }
    .t { font-family: ui-monospace, Consolas, monospace; font-size: 11px; }
  </style><defs><marker id="sh" viewBox="0 0 10 10" refX="9" refY="5" markerWidth="5" markerHeight="5" orient="auto-start-reverse"><path d="M 0 0 L 10 5 L 0 10 z" fill="var(--alert)"/></marker><marker id="sa" viewBox="0 0 10 10" refX="9" refY="5" markerWidth="5" markerHeight="5" orient="auto-start-reverse"><path d="M 0 0 L 10 5 L 0 10 z" fill="var(--axial)"/></marker><bx:export><bx:file format="svg"/></bx:export></defs><line x1="100" y1="86" x2="100" y2="30" stroke="var(--alert)" stroke-width="2.5" marker-end="url(#sh)"/><line x1="120" y1="150" x2="81.642" y2="87.505" stroke="var(--axial)" stroke-width="2.5" marker-end="url(#sa)" style=""/><line x1="77.807" y1="79.835" x2="77.807" y2="35.835" stroke="var(--alert)" stroke-width="1.2" stroke-dasharray="4 3" opacity="0.8"/><line x1="77.807" y1="79.835" x2="59.807" y2="45.835" stroke="var(--muted)" stroke-width="1.2" stroke-dasharray="4 3"/><path d="M 77.807 55.835 C 73.807 55.168 69.807 56.168 65.807 58.835" fill="none" stroke="var(--left)" stroke-width="2"/><text class="t" x="48.99" y="48.982" fill="var(--left)" style="white-space: pre; font-size: 11px;">θ</text><circle cx="100" cy="22" r="5" fill="var(--surface)" stroke="var(--alert)" stroke-width="2.5"/><circle cx="100" cy="86" r="5" fill="var(--surface)" stroke="var(--alert)" stroke-width="2.5"/><circle cx="78.495" cy="80.294" r="6" fill="var(--left)"/><circle cx="120" cy="150" r="5" fill="var(--surface)" stroke="var(--axial)" stroke-width="2.5"/><text class="t" x="110" y="22" fill="var(--alert)" style="white-space: pre;">Neck</text><text class="t" x="110" y="90" fill="var(--alert)" style="white-space: pre;">Hip</text><text class="t" style="white-space: pre;" transform="matrix(0.912225, 0, 0, 0.875, 9.304192, 11.738479)" x="106" y="104">(pelvis centre)</text><text class="t" x="6.101" y="88.881" fill="var(--left)" style="white-space: pre; font-size: 11px;">RShoulder</text><text class="t" style="white-space: pre;" x="128" y="154">RElbow</text><text class="t" style="white-space: pre;" x="12.129" y="177.018">arm vs trunk — not a vertex</text></svg>