<?xml version="1.0" encoding="utf-8"?>
<svg xmlns="http://www.w3.org/2000/svg" viewBox="0 0 640 345" width="640" height="345" role="img" aria-label="Plan view: the camera on the perpendicular to the direction of travel, with an oblique camera shown for contrast." xmlns:bx="https://boxy-svg.com"><defs><bx:export><bx:file format="svg"/></bx:export></defs><style>
    svg {
      --ink:#14130f; --muted:#6f6d66; --axial:#454339;
      --right:#1f8f6b; --alert:#b23a22; --fov:rgba(31,143,107,0.10);
    }
    @media (prefers-color-scheme: dark) {
      svg {
        --ink:#f2efe8; --muted:#928e83; --axial:#a9a496;
        --right:#3fb98c; --alert:#e8735a; --fov:rgba(63,185,140,0.14);
      }
    }
    .t { font-family: ui-monospace, Consolas, monospace; }
  </style><rect x="196" y="58" width="248" height="64" rx="4" fill="none" stroke="var(--muted)" stroke-width="1.2" stroke-dasharray="5 4" opacity="0.7"/><text class="t" style="font-size: 10.5px; white-space: pre;" x="351.46" y="51.276">capture volume</text><path d="M 320 268 L 176 90 L 464 90 Z" fill="var(--fov)"/><line x1="70" y1="90" x2="560" y2="90" stroke="var(--axial)" stroke-width="2.5"/><path d="M 560 90 l -11 -5 l 0 10 Z" fill="var(--axial)"/><text class="t" style="font-size: 10px; white-space: pre;" x="75.106" y="81.48">Direction of travel</text><text class="t" style="font-size: 10.5px; white-space: pre;" x="69.575" y="221.711">The plane of motion (sagittal)</text><circle cx="320" cy="90" r="7" style="fill: rgb(142, 92, 0);"/><text class="t" style="fill: rgb(142, 92, 0); font-size: 11px; white-space: pre;" x="332" y="80">subject</text><line x1="320" y1="268" x2="320" y2="90" stroke="var(--right)" stroke-width="1.8" stroke-dasharray="6 4"/><path d="M 320 108 L 338 108 L 338 90" fill="none" stroke="var(--right)" stroke-width="1.5"/><rect x="298" y="268" width="44" height="28" rx="5" fill="var(--right)"/><path d="M 342 276 l 14 -6 l 0 24 l -14 -6 Z" fill="var(--right)"/><text class="t" x="280.664" y="320.127" font-size="11.5" fill="var(--right)" style="white-space: pre; font-size: 11.5px;">optical axis</text><line x1="470" y1="262" x2="320" y2="90" stroke="var(--alert)" stroke-width="1.6" stroke-dasharray="5 4" opacity="0.85"/><rect x="469.018" y="263.702" width="40" height="26" rx="5" fill="var(--alert)" opacity="0.85"/><path d="M 320 152 Q 344 146 356 132" fill="none" stroke="var(--alert)" stroke-width="1.6"/><text class="t" x="352" y="150" font-size="12" fill="var(--alert)" style="white-space: pre;">θ</text><text class="t" x="550.581" y="234.994" font-size="11.5" fill="var(--alert)" text-anchor="middle" style="white-space: pre; font-size: 11.5px;">oblique: travel-axis</text><text class="t" x="548.029" y="250.143" font-size="11.5" fill="var(--alert)" text-anchor="middle" style="white-space: pre; font-size: 11.5px;">compressed by cos θ</text></svg>