<?xml version="1.0" encoding="utf-8"?>
<svg xmlns="http://www.w3.org/2000/svg" viewBox="0 0 620 700" width="620" height="700" role="img" aria-label="Kinematic topology of the 22 Sports2D keypoints: right, left and axial chains rooted at the pelvis." xmlns:bx="https://boxy-svg.com"><defs><bx:export><bx:file format="svg"/></bx:export></defs><style>
    svg {
      --ink: #14130f; --muted: #8f8b80; --axial: #454339;
      --left: #d24e2b; --right: #1f8f6b;
    }
    @media (prefers-color-scheme: dark) {
      svg {
        --ink: #f2efe8; --muted: #928e83; --axial: #a9a496;
        --left: #e8623d; --right: #3fb98c;
      }
    }
    .lbl { font-family: ui-monospace, "SF Mono", Consolas, monospace; font-size: 11.5px; fill: var(--ink); }
    .idx { fill: var(--muted); }
  </style><line x1="300" y1="258" x2="300" y2="104" stroke="var(--axial)" stroke-width="2" stroke-opacity="0.55" stroke-linecap="round"/><line x1="300" y1="104" x2="300" y2="30" stroke="var(--axial)" stroke-width="2" stroke-opacity="0.55" stroke-linecap="round"/><line x1="300" y1="30" x2="336" y2="56" stroke="var(--axial)" stroke-width="2" stroke-opacity="0.55" stroke-linecap="round"/><line x1="300" y1="104" x2="238" y2="122" stroke="var(--axial)" stroke-width="2" stroke-opacity="0.55" stroke-linecap="round"/><line x1="300" y1="104" x2="362" y2="122" stroke="var(--axial)" stroke-width="2" stroke-opacity="0.55" stroke-linecap="round"/><line x1="238" y1="122" x2="362" y2="122" stroke="var(--axial)" stroke-width="2" stroke-opacity="0.55" stroke-linecap="round"/><line x1="238" y1="122" x2="210" y2="209" stroke="var(--right)" stroke-width="2" stroke-opacity="0.55" stroke-linecap="round"/><line x1="210" y1="209" x2="195" y2="296" stroke="var(--right)" stroke-width="2" stroke-opacity="0.55" stroke-linecap="round"/><line x1="362" y1="122" x2="390" y2="209" stroke="var(--left)" stroke-width="2" stroke-opacity="0.55" stroke-linecap="round"/><line x1="390" y1="209" x2="405" y2="296" stroke="var(--left)" stroke-width="2" stroke-opacity="0.55" stroke-linecap="round"/><line x1="300" y1="258" x2="263" y2="275" stroke="var(--axial)" stroke-width="2" stroke-opacity="0.55" stroke-linecap="round"/><line x1="300" y1="258" x2="337" y2="275" stroke="var(--axial)" stroke-width="2" stroke-opacity="0.55" stroke-linecap="round"/><line x1="263" y1="275" x2="337" y2="275" stroke="var(--axial)" stroke-width="2" stroke-opacity="0.55" stroke-linecap="round"/><line x1="263" y1="275" x2="256" y2="412" stroke="var(--right)" stroke-width="2" stroke-opacity="0.55" stroke-linecap="round"/><line x1="256" y1="412" x2="250" y2="550" stroke="var(--right)" stroke-width="2" stroke-opacity="0.55" stroke-linecap="round"/><line x1="337" y1="275" x2="344" y2="412" stroke="var(--left)" stroke-width="2" stroke-opacity="0.55" stroke-linecap="round"/><line x1="344" y1="412" x2="350" y2="550" stroke="var(--left)" stroke-width="2" stroke-opacity="0.55" stroke-linecap="round"/><line x1="250" y1="550" x2="242" y2="600" stroke="var(--right)" stroke-width="2" stroke-opacity="0.55" stroke-linecap="round"/><line x1="250" y1="550" x2="284" y2="630" stroke="var(--right)" stroke-width="2" stroke-opacity="0.55" stroke-linecap="round"/><line x1="242" y1="600" x2="284" y2="630" stroke="var(--right)" stroke-width="2" stroke-opacity="0.55" stroke-linecap="round"/><line x1="284" y1="630" x2="246" y2="642" stroke="var(--right)" stroke-width="2" stroke-opacity="0.55" stroke-linecap="round"/><line x1="350" y1="550" x2="358" y2="600" stroke="var(--left)" stroke-width="2" stroke-opacity="0.55" stroke-linecap="round"/><line x1="350" y1="550" x2="316" y2="630" stroke="var(--left)" stroke-width="2" stroke-opacity="0.55" stroke-linecap="round"/><line x1="358" y1="600" x2="316" y2="630" stroke="var(--left)" stroke-width="2" stroke-opacity="0.55" stroke-linecap="round"/><line x1="316" y1="630" x2="354" y2="642" stroke="var(--left)" stroke-width="2" stroke-opacity="0.55" stroke-linecap="round"/><circle cx="300" cy="258" r="10" fill="none" stroke="var(--axial)" stroke-width="1.5" stroke-opacity="0.45"/><circle cx="300" cy="258" r="5.5" fill="var(--axial)"/><text class="lbl" style="fill: rgb(0, 0, 0); white-space: pre; font-size: 11.5px;" x="314.612" y="254.365">1-Hip</text><circle cx="263" cy="275" r="10" fill="none" stroke="var(--right)" stroke-width="1.5" stroke-opacity="0.45"/><circle cx="263" cy="275" r="5.5" fill="var(--right)"/><text class="lbl" style="fill: rgb(0, 0, 0); text-anchor: end; white-space: pre;" x="247" y="279">2-RHip</text><circle cx="256" cy="412" r="10" fill="none" stroke="var(--right)" stroke-width="1.5" stroke-opacity="0.45"/><circle cx="256" cy="412" r="5.5" fill="var(--right)"/><text class="lbl" style="fill: rgb(0, 0, 0); text-anchor: end; white-space: pre;" x="240" y="416">3-RKnee</text><circle cx="250" cy="550" r="10" fill="none" stroke="var(--right)" stroke-width="1.5" stroke-opacity="0.45"/><circle cx="250" cy="550" r="5.5" fill="var(--right)"/><text class="lbl" style="fill: rgb(0, 0, 0); text-anchor: end; white-space: pre;" x="234" y="554">4-RAnkle</text><circle cx="284" cy="630" r="10" fill="none" stroke="var(--right)" stroke-width="1.5" stroke-opacity="0.45"/><circle cx="284" cy="630" r="5.5" fill="var(--right)"/><text class="lbl" style="fill: rgb(0, 0, 0); text-anchor: end; white-space: pre; font-size: 11.5px;" x="260.712" y="629.141">5-RBigToe</text><circle cx="246" cy="642" r="5.5" fill="var(--right)"/><text class="lbl" style="fill: rgb(0, 0, 0); text-anchor: end; white-space: pre; font-size: 11.5px;" x="232.776" y="650.165">6-RSmallToe</text><circle cx="242" cy="600" r="10" fill="none" stroke="var(--right)" stroke-width="1.5" stroke-opacity="0.45"/><circle cx="242" cy="600" r="5.5" fill="var(--right)"/><text class="lbl" style="fill: rgb(0, 0, 0); text-anchor: end; white-space: pre;" x="226" y="604">7-RHeel</text><circle cx="337" cy="275" r="10" fill="none" stroke="var(--left)" stroke-width="1.5" stroke-opacity="0.45"/><circle cx="337" cy="275" r="5.5" fill="var(--left)"/><text class="lbl" style="fill: rgb(0, 0, 0); white-space: pre;" x="353" y="279">8-LHip</text><circle cx="344" cy="412" r="10" fill="none" stroke="var(--left)" stroke-width="1.5" stroke-opacity="0.45"/><circle cx="344" cy="412" r="5.5" fill="var(--left)"/><text class="lbl" style="fill: rgb(0, 0, 0); white-space: pre;" x="360" y="416">9-LKnee</text><circle cx="350" cy="550" r="10" fill="none" stroke="var(--left)" stroke-width="1.5" stroke-opacity="0.45"/><circle cx="350" cy="550" r="5.5" fill="var(--left)"/><text class="lbl" style="fill: rgb(0, 0, 0); white-space: pre;" x="366" y="554">10-LAnkle</text><circle cx="316" cy="630" r="10" fill="none" stroke="var(--left)" stroke-width="1.5" stroke-opacity="0.45"/><circle cx="316" cy="630" r="5.5" fill="var(--left)"/><text class="lbl" style="fill: rgb(0, 0, 0); white-space: pre; font-size: 11.5px;" x="337.9" y="628.447">11-LBigToe</text><circle cx="354" cy="642" r="5.5" fill="var(--left)"/><text class="lbl" style="fill: rgb(0, 0, 0); white-space: pre; font-size: 11.5px;" x="367.224" y="650.859">12-LSmallToe</text><circle cx="358" cy="600" r="10" fill="none" stroke="var(--left)" stroke-width="1.5" stroke-opacity="0.45"/><circle cx="358" cy="600" r="5.5" fill="var(--left)"/><text class="lbl" style="fill: rgb(0, 0, 0); white-space: pre;" x="374" y="604">13-LHeel</text><circle cx="300" cy="104" r="10" fill="none" stroke="var(--axial)" stroke-width="1.5" stroke-opacity="0.45"/><circle cx="300" cy="104" r="5.5" fill="var(--axial)"/><text class="lbl" style="fill: rgb(0, 0, 0); white-space: pre; font-size: 11.5px;" x="314.274" y="95.915">14-Neck</text><circle cx="300" cy="30" r="5.5" fill="var(--axial)"/><text class="lbl" style="fill: rgb(0, 0, 0); white-space: pre;" x="316" y="34">15-Head</text><circle cx="336" cy="56" r="5.5" fill="var(--axial)"/><text class="lbl" style="fill: rgb(0, 0, 0); white-space: pre; font-size: 11.5px;" x="348.547" y="62.59">16-Nose</text><circle cx="238" cy="122" r="10" fill="none" stroke="var(--right)" stroke-width="1.5" stroke-opacity="0.45"/><circle cx="238" cy="122" r="5.5" fill="var(--right)"/><text class="lbl" style="fill: rgb(0, 0, 0); text-anchor: end; white-space: pre;" x="222" y="126">17-RShoulder</text><circle cx="210" cy="209" r="5.5" fill="var(--right)"/><text class="lbl" style="fill: rgb(0, 0, 0); text-anchor: end; white-space: pre; font-size: 11.5px;" x="194.347" y="213">18-RElbow</text><circle cx="195" cy="296" r="5.5" fill="var(--right)"/><text class="lbl" style="fill: rgb(0, 0, 0); text-anchor: end; white-space: pre;" x="179" y="300">19-RWrist</text><circle cx="362" cy="122" r="10" fill="none" stroke="var(--left)" stroke-width="1.5" stroke-opacity="0.45"/><circle cx="362" cy="122" r="5.5" fill="var(--left)"/><text class="lbl" style="fill: rgb(0, 0, 0); white-space: pre;" x="378" y="126">20-LShoulder</text><circle cx="390" cy="209" r="5.5" fill="var(--left)"/><text class="lbl" style="fill: rgb(0, 0, 0); white-space: pre;" x="406" y="213">21-LElbow</text><circle cx="405" cy="296" r="5.5" fill="var(--left)"/><text class="lbl" style="fill: rgb(0, 0, 0); white-space: pre;" x="421" y="300">22-LWrist</text></svg>